<svg width="1330" height="966" viewBox="0 0 1330 966" fill="none" xmlns="http://www.w3.org/2000/svg">
<path d="M386.243 723.705C386.243 723.705 308.994 725.643 0 723.705V429.773H933.329V570.548L1076.39 429.773H1329.97V536.095L933.329 743.354L929.459 965.5H273.543V837.294L386.243 723.705Z" fill="#0E1319"/>
<path d="M1011.3 79.397C1011.3 123.247 975.748 158.794 931.898 158.794C888.049 158.794 852.501 123.247 852.501 79.397C852.501 35.5472 888.049 0 931.898 0C975.748 0 1011.3 35.5472 1011.3 79.397Z" fill="#EA6B3E"/>
<path d="M1167.38 245.778C1167.38 285.138 1135.59 317.046 1096.38 317.046C1057.17 317.046 1025.39 285.138 1025.39 245.778C1025.39 206.418 1057.17 174.511 1096.38 174.511C1135.59 174.511 1167.38 206.418 1167.38 245.778Z" fill="#EA6B3E"/>
<path d="M827.029 242.256C827.029 270.691 804.1 293.742 775.814 293.742C747.529 293.742 724.599 270.691 724.599 242.256C724.599 213.821 747.529 190.77 775.814 190.77C804.1 190.77 827.029 213.821 827.029 242.256Z" fill="#C6794B"/>
<path d="M1042.63 217.326L973.358 143.271L995.385 122.483L1066.58 193.291L1042.63 217.326Z" fill="#EA6B3E"/>
</svg>
