<svg width="1626" height="1626" viewBox="0 0 1626 1626" fill="none" xmlns="http://www.w3.org/2000/svg">
<path d="M0 246C0 110.138 110.138 0 246 0H1380C1515.86 0 1626 110.138 1626 246V1380C1626 1515.86 1515.86 1626 1380 1626H246C110.138 1626 0 1515.86 0 1380V246Z" fill="#0E1319"/>
<path d="M534.243 1053.71C534.243 1053.71 456.994 1055.64 148 1053.71V759.773H1081.33V900.548L1224.39 759.773H1477.97V866.095L1081.33 1073.35L1077.46 1295.5H421.543V1167.29L534.243 1053.71Z" fill="#F1EDE4"/>
<path d="M1159.3 409.397C1159.3 453.247 1123.75 488.794 1079.9 488.794C1036.05 488.794 1000.5 453.247 1000.5 409.397C1000.5 365.547 1036.05 330 1079.9 330C1123.75 330 1159.3 365.547 1159.3 409.397Z" fill="#F1EDE4"/>
<path d="M1315.38 575.779C1315.38 615.139 1283.59 647.046 1244.38 647.046C1205.17 647.046 1173.39 615.139 1173.39 575.779C1173.39 536.418 1205.17 504.511 1244.38 504.511C1283.59 504.511 1315.38 536.418 1315.38 575.779Z" fill="#F1EDE4"/>
<path d="M975.029 572.256C975.029 600.691 952.1 623.742 923.814 623.742C895.529 623.742 872.599 600.691 872.599 572.256C872.599 543.821 895.529 520.77 923.814 520.77C952.1 520.77 975.029 543.821 975.029 572.256Z" fill="#F1EDE4"/>
<path d="M1190.63 547.326L1121.36 473.271L1143.39 452.483L1214.58 523.291L1190.63 547.326Z" fill="#F1EDE4"/>
</svg>
