<svg width="3981" height="1208" viewBox="0 0 3981 1208" fill="none" xmlns="http://www.w3.org/2000/svg">
<path d="M0 0H3981V1208H0V0Z" fill="#F1EDE4"/>
<path d="M487.915 737.026C487.915 737.026 420.132 738.726 149 737.026V479.111H967.964V602.636L1093.5 479.111H1316V572.404L967.964 754.267L964.568 949.192H389.025V836.696L487.915 737.026Z" fill="#0E1319"/>
<path d="M1036.38 171.668C1036.38 210.145 1005.19 241.336 966.709 241.336C928.232 241.336 897.041 210.145 897.041 171.668C897.041 133.191 928.232 102 966.709 102C1005.19 102 1036.38 133.191 1036.38 171.668Z" fill="#0E1319"/>
<path d="M1173.34 317.663C1173.34 352.2 1145.44 380.198 1111.04 380.198C1076.63 380.198 1048.74 352.2 1048.74 317.663C1048.74 283.126 1076.63 255.128 1111.04 255.128C1145.44 255.128 1173.34 283.126 1173.34 317.663Z" fill="#0E1319"/>
<path d="M874.69 314.571C874.69 339.522 854.57 359.748 829.75 359.748C804.931 359.748 784.811 339.522 784.811 314.571C784.811 289.62 804.931 269.394 829.75 269.394C854.57 269.394 874.69 289.62 874.69 314.571Z" fill="#0E1319"/>
<path d="M1063.87 292.695L1003.09 227.714L1022.42 209.474L1084.88 271.605L1063.87 292.695Z" fill="#0E1319"/>
<path d="M1586.2 814.599C1572.6 814.599 1560.2 812.199 1549 807.399C1537.8 802.599 1529 795.666 1522.6 786.599C1516.2 777.532 1513 766.466 1513 753.399C1513 740.066 1516.2 729.132 1522.6 720.599C1529 711.799 1537.8 705.266 1549 700.999C1560.2 696.466 1572.73 694.199 1586.6 694.199H1652.6V679.799C1652.6 665.932 1648.47 654.999 1640.2 646.999C1632.2 638.999 1620.2 634.999 1604.2 634.999C1588.47 634.999 1576.2 638.866 1567.4 646.599C1558.6 654.066 1552.6 664.199 1549.4 676.999L1519.8 667.399C1523 656.466 1528.07 646.599 1535 637.799C1541.93 628.732 1551.13 621.532 1562.6 616.199C1574.33 610.599 1588.33 607.799 1604.6 607.799C1629.67 607.799 1649.13 614.332 1663 627.399C1676.87 640.199 1683.8 658.332 1683.8 681.799V770.199C1683.8 778.199 1687.53 782.199 1695 782.199H1713V808.999H1685.4C1676.6 808.999 1669.53 806.599 1664.2 801.799C1658.87 796.732 1656.2 790.066 1656.2 781.799V779.799H1651.4C1648.47 784.866 1644.47 790.199 1639.4 795.799C1634.6 801.132 1627.93 805.532 1619.4 808.999C1610.87 812.732 1599.8 814.599 1586.2 814.599ZM1589.8 787.399C1608.47 787.399 1623.53 781.932 1635 770.999C1646.73 759.799 1652.6 744.199 1652.6 724.199V719.799H1587.8C1575.27 719.799 1564.87 722.599 1556.6 728.199C1548.6 733.532 1544.6 741.666 1544.6 752.599C1544.6 763.532 1548.73 772.066 1557 778.199C1565.53 784.332 1576.47 787.399 1589.8 787.399Z" fill="#0E1319"/>
<path d="M1774.8 888.999V860.999H1886.8C1894.53 860.999 1898.4 856.999 1898.4 848.999V777.799H1892.8C1890.13 783.399 1886 788.999 1880.4 794.599C1875.07 799.932 1868 804.332 1859.2 807.799C1850.4 810.999 1839.33 812.599 1826 812.599C1811.87 812.599 1798.8 809.532 1786.8 803.399C1775.07 797.266 1765.73 788.199 1758.8 776.199C1752.13 764.199 1748.8 749.532 1748.8 732.199V613.399H1780.4V729.799C1780.4 748.999 1785.2 762.999 1794.8 771.799C1804.67 780.599 1817.87 784.999 1834.4 784.999C1853.07 784.999 1868.4 778.866 1880.4 766.599C1892.4 754.332 1898.4 736.066 1898.4 711.799V613.399H1930V854.599C1930 865.266 1926.93 873.666 1920.8 879.799C1914.93 885.932 1906.27 888.999 1894.8 888.999H1774.8Z" fill="#0E1319"/>
<path d="M1996.12 808.999V613.399H2026.92V637.399H2032.52C2035.99 628.866 2041.32 622.599 2048.52 618.599C2055.72 614.599 2065.19 612.599 2076.92 612.599H2100.12V641.399H2074.92C2060.79 641.399 2049.32 645.399 2040.52 653.399C2031.99 661.132 2027.72 673.266 2027.72 689.799V808.999H1996.12Z" fill="#0E1319"/>
<path d="M2230.27 814.599C2210.54 814.599 2193.07 810.466 2177.87 802.199C2162.94 793.932 2151.21 782.332 2142.67 767.399C2134.41 752.199 2130.27 734.332 2130.27 713.799V708.599C2130.27 688.332 2134.41 670.599 2142.67 655.399C2151.21 640.199 2162.94 628.466 2177.87 620.199C2193.07 611.932 2210.54 607.799 2230.27 607.799C2250.01 607.799 2267.34 611.932 2282.27 620.199C2297.47 628.466 2309.21 640.199 2317.47 655.399C2326.01 670.599 2330.27 688.332 2330.27 708.599V713.799C2330.27 734.332 2326.01 752.199 2317.47 767.399C2309.21 782.332 2297.47 793.932 2282.27 802.199C2267.34 810.466 2250.01 814.599 2230.27 814.599ZM2230.27 786.199C2251.07 786.199 2267.61 779.666 2279.87 766.599C2292.41 753.266 2298.67 735.399 2298.67 712.999V709.399C2298.67 686.999 2292.41 669.266 2279.87 656.199C2267.61 642.866 2251.07 636.199 2230.27 636.199C2209.74 636.199 2193.21 642.866 2180.67 656.199C2168.14 669.266 2161.87 686.999 2161.87 709.399V712.999C2161.87 735.399 2168.14 753.266 2180.67 766.599C2193.21 779.666 2209.74 786.199 2230.27 786.199Z" fill="#0E1319"/>
<path d="M2387.14 808.999V613.399H2417.94V646.599H2423.54C2427.8 637.266 2435 628.866 2445.14 621.399C2455.54 613.666 2470.74 609.799 2490.74 609.799C2505.4 609.799 2518.47 612.866 2529.94 618.999C2541.67 625.132 2551 634.199 2557.94 646.199C2564.87 658.199 2568.34 672.999 2568.34 690.599V808.999H2536.74V692.999C2536.74 673.532 2531.8 659.399 2521.94 650.599C2512.34 641.799 2499.27 637.399 2482.74 637.399C2463.8 637.399 2448.34 643.532 2436.34 655.799C2424.6 668.066 2418.74 686.332 2418.74 710.599V808.999H2387.14Z" fill="#0E1319"/>
<path d="M2773.58 808.999V640.999H2713.58V613.399H2773.58V563.399C2773.58 552.732 2776.52 544.332 2782.38 538.199C2788.52 532.066 2797.18 528.999 2808.38 528.999H2857.58V556.199H2817.18C2809.18 556.199 2805.18 560.199 2805.18 568.199V613.399H2866.78V640.999H2805.18V808.999H2773.58Z" fill="#0E1319"/>
<path d="M2992.77 814.599C2973.04 814.599 2955.57 810.466 2940.37 802.199C2925.44 793.932 2913.71 782.332 2905.17 767.399C2896.91 752.199 2892.77 734.332 2892.77 713.799V708.599C2892.77 688.332 2896.91 670.599 2905.17 655.399C2913.71 640.199 2925.44 628.466 2940.37 620.199C2955.57 611.932 2973.04 607.799 2992.77 607.799C3012.51 607.799 3029.84 611.932 3044.77 620.199C3059.97 628.466 3071.71 640.199 3079.97 655.399C3088.51 670.599 3092.77 688.332 3092.77 708.599V713.799C3092.77 734.332 3088.51 752.199 3079.97 767.399C3071.71 782.332 3059.97 793.932 3044.77 802.199C3029.84 810.466 3012.51 814.599 2992.77 814.599ZM2992.77 786.199C3013.57 786.199 3030.11 779.666 3042.37 766.599C3054.91 753.266 3061.17 735.399 3061.17 712.999V709.399C3061.17 686.999 3054.91 669.266 3042.37 656.199C3030.11 642.866 3013.57 636.199 2992.77 636.199C2972.24 636.199 2955.71 642.866 2943.17 656.199C2930.64 669.266 2924.37 686.999 2924.37 709.399V712.999C2924.37 735.399 2930.64 753.266 2943.17 766.599C2955.71 779.666 2972.24 786.199 2992.77 786.199Z" fill="#0E1319"/>
<path d="M3149.64 808.999V613.399H3180.44V637.399H3186.04C3189.5 628.866 3194.84 622.599 3202.04 618.599C3209.24 614.599 3218.7 612.599 3230.44 612.599H3253.64V641.399H3228.44C3214.3 641.399 3202.84 645.399 3194.04 653.399C3185.5 661.132 3181.24 673.266 3181.24 689.799V808.999H3149.64Z" fill="#0E1319"/>
<path d="M3283.79 712.199V706.599C3283.79 686.066 3287.92 668.466 3296.19 653.799C3304.45 639.132 3315.65 627.799 3329.79 619.799C3343.92 611.799 3359.39 607.799 3376.19 607.799C3396.72 607.799 3412.45 611.799 3423.39 619.799C3434.59 627.532 3442.85 636.199 3448.19 645.799H3453.79V613.399H3483.79V854.599C3483.79 865.266 3480.85 873.666 3474.99 879.799C3469.12 885.932 3460.59 888.999 3449.39 888.999H3316.59V860.999H3440.99C3448.99 860.999 3452.99 856.999 3452.99 848.999V774.599H3447.39C3444.19 780.466 3439.65 786.199 3433.79 791.799C3427.92 797.399 3420.32 802.066 3410.99 805.799C3401.65 809.266 3390.05 810.999 3376.19 810.999C3359.39 810.999 3343.92 806.999 3329.79 798.999C3315.65 790.999 3304.45 779.666 3296.19 764.999C3287.92 750.066 3283.79 732.466 3283.79 712.199ZM3384.59 782.999C3404.85 782.999 3421.25 776.599 3433.79 763.799C3446.59 750.999 3452.99 733.399 3452.99 710.999V707.799C3452.99 685.132 3446.59 667.532 3433.79 654.999C3421.25 642.199 3404.85 635.799 3384.59 635.799C3364.59 635.799 3348.05 642.199 3334.99 654.999C3322.19 667.532 3315.79 685.132 3315.79 707.799V710.999C3315.79 733.399 3322.19 750.999 3334.99 763.799C3348.05 776.599 3364.59 782.999 3384.59 782.999Z" fill="#0E1319"/>
<path d="M3639.63 814.599C3619.89 814.599 3602.56 810.466 3587.63 802.199C3572.69 793.666 3561.09 781.799 3552.83 766.599C3544.56 751.399 3540.43 733.799 3540.43 713.799V708.999C3540.43 688.732 3544.56 670.999 3552.83 655.799C3561.09 640.599 3572.56 628.866 3587.23 620.599C3601.89 612.066 3618.69 607.799 3637.63 607.799C3656.03 607.799 3672.29 611.799 3686.43 619.799C3700.56 627.532 3711.63 638.732 3719.63 653.399C3727.63 668.066 3731.63 685.266 3731.63 704.999V719.399H3572.03C3572.83 740.466 3579.63 756.999 3592.43 768.999C3605.23 780.732 3621.23 786.599 3640.43 786.599C3657.23 786.599 3670.16 782.732 3679.23 774.999C3688.29 767.266 3695.23 758.066 3700.03 747.399L3727.23 760.599C3723.23 768.866 3717.63 777.132 3710.43 785.399C3703.49 793.666 3694.29 800.599 3682.83 806.199C3671.63 811.799 3657.23 814.599 3639.63 814.599ZM3572.43 693.399H3699.63C3698.56 675.266 3692.29 661.132 3680.83 650.999C3669.63 640.866 3655.23 635.799 3637.63 635.799C3619.76 635.799 3605.09 640.866 3593.63 650.999C3582.16 661.132 3575.09 675.266 3572.43 693.399Z" fill="#0E1319"/>
</svg>
