<svg width="3981" height="1208" viewBox="0 0 3981 1208" fill="none" xmlns="http://www.w3.org/2000/svg">
<path d="M0 0H3981V1208H0V0Z" fill="#F1EDE4"/>
<path d="M538.915 739.026C538.915 739.026 471.132 740.726 200 739.026V481.111H1018.96V604.636L1144.5 481.111H1367V574.404L1018.96 756.267L1015.57 951.192H440.025V838.696L538.915 739.026Z" fill="#0E1319"/>
<path d="M1087.38 173.668C1087.38 212.145 1056.19 243.336 1017.71 243.336C979.232 243.336 948.041 212.145 948.041 173.668C948.041 135.191 979.232 104 1017.71 104C1056.19 104 1087.38 135.191 1087.38 173.668Z" fill="#EA6B3E"/>
<path d="M1224.34 319.663C1224.34 354.2 1196.44 382.198 1162.04 382.198C1127.63 382.198 1099.74 354.2 1099.74 319.663C1099.74 285.126 1127.63 257.128 1162.04 257.128C1196.44 257.128 1224.34 285.126 1224.34 319.663Z" fill="#EA6B3E"/>
<path d="M925.69 316.571C925.69 341.522 905.57 361.748 880.75 361.748C855.931 361.748 835.811 341.522 835.811 316.571C835.811 291.62 855.931 271.394 880.75 271.394C905.57 271.394 925.69 291.62 925.69 316.571Z" fill="#C6794B"/>
<path d="M1114.87 294.695L1054.09 229.714L1073.42 211.474L1135.88 273.605L1114.87 294.695Z" fill="#EA6B3E"/>
<path d="M1637.2 816.599C1623.6 816.599 1611.2 814.199 1600 809.399C1588.8 804.599 1580 797.666 1573.6 788.599C1567.2 779.532 1564 768.466 1564 755.399C1564 742.066 1567.2 731.132 1573.6 722.599C1580 713.799 1588.8 707.266 1600 702.999C1611.2 698.466 1623.73 696.199 1637.6 696.199H1703.6V681.799C1703.6 667.932 1699.47 656.999 1691.2 648.999C1683.2 640.999 1671.2 636.999 1655.2 636.999C1639.47 636.999 1627.2 640.866 1618.4 648.599C1609.6 656.066 1603.6 666.199 1600.4 678.999L1570.8 669.399C1574 658.466 1579.07 648.599 1586 639.799C1592.93 630.732 1602.13 623.532 1613.6 618.199C1625.33 612.599 1639.33 609.799 1655.6 609.799C1680.67 609.799 1700.13 616.332 1714 629.399C1727.87 642.199 1734.8 660.332 1734.8 683.799V772.199C1734.8 780.199 1738.53 784.199 1746 784.199H1764V810.999H1736.4C1727.6 810.999 1720.53 808.599 1715.2 803.799C1709.87 798.732 1707.2 792.066 1707.2 783.799V781.799H1702.4C1699.47 786.866 1695.47 792.199 1690.4 797.799C1685.6 803.132 1678.93 807.532 1670.4 810.999C1661.87 814.732 1650.8 816.599 1637.2 816.599ZM1640.8 789.399C1659.47 789.399 1674.53 783.932 1686 772.999C1697.73 761.799 1703.6 746.199 1703.6 726.199V721.799H1638.8C1626.27 721.799 1615.87 724.599 1607.6 730.199C1599.6 735.532 1595.6 743.666 1595.6 754.599C1595.6 765.532 1599.73 774.066 1608 780.199C1616.53 786.332 1627.47 789.399 1640.8 789.399Z" fill="#0E1319"/>
<path d="M1825.8 890.999V862.999H1937.8C1945.53 862.999 1949.4 858.999 1949.4 850.999V779.799H1943.8C1941.13 785.399 1937 790.999 1931.4 796.599C1926.07 801.932 1919 806.332 1910.2 809.799C1901.4 812.999 1890.33 814.599 1877 814.599C1862.87 814.599 1849.8 811.532 1837.8 805.399C1826.07 799.266 1816.73 790.199 1809.8 778.199C1803.13 766.199 1799.8 751.532 1799.8 734.199V615.399H1831.4V731.799C1831.4 750.999 1836.2 764.999 1845.8 773.799C1855.67 782.599 1868.87 786.999 1885.4 786.999C1904.07 786.999 1919.4 780.866 1931.4 768.599C1943.4 756.332 1949.4 738.066 1949.4 713.799V615.399H1981V856.599C1981 867.266 1977.93 875.666 1971.8 881.799C1965.93 887.932 1957.27 890.999 1945.8 890.999H1825.8Z" fill="#0E1319"/>
<path d="M2047.12 810.999V615.399H2077.92V639.399H2083.52C2086.99 630.866 2092.32 624.599 2099.52 620.599C2106.72 616.599 2116.19 614.599 2127.92 614.599H2151.12V643.399H2125.92C2111.79 643.399 2100.32 647.399 2091.52 655.399C2082.99 663.132 2078.72 675.266 2078.72 691.799V810.999H2047.12Z" fill="#0E1319"/>
<path d="M2281.27 816.599C2261.54 816.599 2244.07 812.466 2228.87 804.199C2213.94 795.932 2202.21 784.332 2193.67 769.399C2185.41 754.199 2181.27 736.332 2181.27 715.799V710.599C2181.27 690.332 2185.41 672.599 2193.67 657.399C2202.21 642.199 2213.94 630.466 2228.87 622.199C2244.07 613.932 2261.54 609.799 2281.27 609.799C2301.01 609.799 2318.34 613.932 2333.27 622.199C2348.47 630.466 2360.21 642.199 2368.47 657.399C2377.01 672.599 2381.27 690.332 2381.27 710.599V715.799C2381.27 736.332 2377.01 754.199 2368.47 769.399C2360.21 784.332 2348.47 795.932 2333.27 804.199C2318.34 812.466 2301.01 816.599 2281.27 816.599ZM2281.27 788.199C2302.07 788.199 2318.61 781.666 2330.87 768.599C2343.41 755.266 2349.67 737.399 2349.67 714.999V711.399C2349.67 688.999 2343.41 671.266 2330.87 658.199C2318.61 644.866 2302.07 638.199 2281.27 638.199C2260.74 638.199 2244.21 644.866 2231.67 658.199C2219.14 671.266 2212.87 688.999 2212.87 711.399V714.999C2212.87 737.399 2219.14 755.266 2231.67 768.599C2244.21 781.666 2260.74 788.199 2281.27 788.199Z" fill="#0E1319"/>
<path d="M2438.14 810.999V615.399H2468.94V648.599H2474.54C2478.8 639.266 2486 630.866 2496.14 623.399C2506.54 615.666 2521.74 611.799 2541.74 611.799C2556.4 611.799 2569.47 614.866 2580.94 620.999C2592.67 627.132 2602 636.199 2608.94 648.199C2615.87 660.199 2619.34 674.999 2619.34 692.599V810.999H2587.74V694.999C2587.74 675.532 2582.8 661.399 2572.94 652.599C2563.34 643.799 2550.27 639.399 2533.74 639.399C2514.8 639.399 2499.34 645.532 2487.34 657.799C2475.6 670.066 2469.74 688.332 2469.74 712.599V810.999H2438.14Z" fill="#0E1319"/>
<path d="M2824.58 810.999V642.999H2764.58V615.399H2824.58V565.399C2824.58 554.732 2827.52 546.332 2833.38 540.199C2839.52 534.066 2848.18 530.999 2859.38 530.999H2908.58V558.199H2868.18C2860.18 558.199 2856.18 562.199 2856.18 570.199V615.399H2917.78V642.999H2856.18V810.999H2824.58Z" fill="#0E1319"/>
<path d="M3043.77 816.599C3024.04 816.599 3006.57 812.466 2991.37 804.199C2976.44 795.932 2964.71 784.332 2956.17 769.399C2947.91 754.199 2943.77 736.332 2943.77 715.799V710.599C2943.77 690.332 2947.91 672.599 2956.17 657.399C2964.71 642.199 2976.44 630.466 2991.37 622.199C3006.57 613.932 3024.04 609.799 3043.77 609.799C3063.51 609.799 3080.84 613.932 3095.77 622.199C3110.97 630.466 3122.71 642.199 3130.97 657.399C3139.51 672.599 3143.77 690.332 3143.77 710.599V715.799C3143.77 736.332 3139.51 754.199 3130.97 769.399C3122.71 784.332 3110.97 795.932 3095.77 804.199C3080.84 812.466 3063.51 816.599 3043.77 816.599ZM3043.77 788.199C3064.57 788.199 3081.11 781.666 3093.37 768.599C3105.91 755.266 3112.17 737.399 3112.17 714.999V711.399C3112.17 688.999 3105.91 671.266 3093.37 658.199C3081.11 644.866 3064.57 638.199 3043.77 638.199C3023.24 638.199 3006.71 644.866 2994.17 658.199C2981.64 671.266 2975.37 688.999 2975.37 711.399V714.999C2975.37 737.399 2981.64 755.266 2994.17 768.599C3006.71 781.666 3023.24 788.199 3043.77 788.199Z" fill="#0E1319"/>
<path d="M3200.64 810.999V615.399H3231.44V639.399H3237.04C3240.5 630.866 3245.84 624.599 3253.04 620.599C3260.24 616.599 3269.7 614.599 3281.44 614.599H3304.64V643.399H3279.44C3265.3 643.399 3253.84 647.399 3245.04 655.399C3236.5 663.132 3232.24 675.266 3232.24 691.799V810.999H3200.64Z" fill="#0E1319"/>
<path d="M3334.79 714.199V708.599C3334.79 688.066 3338.92 670.466 3347.19 655.799C3355.45 641.132 3366.65 629.799 3380.79 621.799C3394.92 613.799 3410.39 609.799 3427.19 609.799C3447.72 609.799 3463.45 613.799 3474.39 621.799C3485.59 629.532 3493.85 638.199 3499.19 647.799H3504.79V615.399H3534.79V856.599C3534.79 867.266 3531.85 875.666 3525.99 881.799C3520.12 887.932 3511.59 890.999 3500.39 890.999H3367.59V862.999H3491.99C3499.99 862.999 3503.99 858.999 3503.99 850.999V776.599H3498.39C3495.19 782.466 3490.65 788.199 3484.79 793.799C3478.92 799.399 3471.32 804.066 3461.99 807.799C3452.65 811.266 3441.05 812.999 3427.19 812.999C3410.39 812.999 3394.92 808.999 3380.79 800.999C3366.65 792.999 3355.45 781.666 3347.19 766.999C3338.92 752.066 3334.79 734.466 3334.79 714.199ZM3435.59 784.999C3455.85 784.999 3472.25 778.599 3484.79 765.799C3497.59 752.999 3503.99 735.399 3503.99 712.999V709.799C3503.99 687.132 3497.59 669.532 3484.79 656.999C3472.25 644.199 3455.85 637.799 3435.59 637.799C3415.59 637.799 3399.05 644.199 3385.99 656.999C3373.19 669.532 3366.79 687.132 3366.79 709.799V712.999C3366.79 735.399 3373.19 752.999 3385.99 765.799C3399.05 778.599 3415.59 784.999 3435.59 784.999Z" fill="#0E1319"/>
<path d="M3690.63 816.599C3670.89 816.599 3653.56 812.466 3638.63 804.199C3623.69 795.666 3612.09 783.799 3603.83 768.599C3595.56 753.399 3591.43 735.799 3591.43 715.799V710.999C3591.43 690.732 3595.56 672.999 3603.83 657.799C3612.09 642.599 3623.56 630.866 3638.23 622.599C3652.89 614.066 3669.69 609.799 3688.63 609.799C3707.03 609.799 3723.29 613.799 3737.43 621.799C3751.56 629.532 3762.63 640.732 3770.63 655.399C3778.63 670.066 3782.63 687.266 3782.63 706.999V721.399H3623.03C3623.83 742.466 3630.63 758.999 3643.43 770.999C3656.23 782.732 3672.23 788.599 3691.43 788.599C3708.23 788.599 3721.16 784.732 3730.23 776.999C3739.29 769.266 3746.23 760.066 3751.03 749.399L3778.23 762.599C3774.23 770.866 3768.63 779.132 3761.43 787.399C3754.49 795.666 3745.29 802.599 3733.83 808.199C3722.63 813.799 3708.23 816.599 3690.63 816.599ZM3623.43 695.399H3750.63C3749.56 677.266 3743.29 663.132 3731.83 652.999C3720.63 642.866 3706.23 637.799 3688.63 637.799C3670.76 637.799 3656.09 642.866 3644.63 652.999C3633.16 663.132 3626.09 677.266 3623.43 695.399Z" fill="#0E1319"/>
</svg>
