<svg width="3583" height="848" viewBox="0 0 3583 848" fill="none" xmlns="http://www.w3.org/2000/svg">
<path d="M338.915 635.026C338.915 635.026 271.132 636.726 0 635.026V377.111H818.964V500.636L944.497 377.111H1167V470.404L818.964 652.267L815.568 847.192H240.025V734.696L338.915 635.026Z" fill="#0E1319"/>
<path d="M887.377 69.6681C887.377 108.145 856.185 139.336 817.709 139.336C779.232 139.336 748.041 108.145 748.041 69.6681C748.041 31.1915 779.232 0 817.709 0C856.185 0 887.377 31.1915 887.377 69.6681Z" fill="#EA6B3E"/>
<path d="M1024.34 215.663C1024.34 250.2 996.444 278.198 962.038 278.198C927.632 278.198 899.741 250.2 899.741 215.663C899.741 181.126 927.632 153.128 962.038 153.128C996.444 153.128 1024.34 181.126 1024.34 215.663Z" fill="#EA6B3E"/>
<path d="M725.69 212.571C725.69 237.522 705.57 257.748 680.75 257.748C655.931 257.748 635.811 237.522 635.811 212.571C635.811 187.62 655.931 167.394 680.75 167.394C705.57 167.394 725.69 187.62 725.69 212.571Z" fill="#C6794B"/>
<path d="M914.874 190.695L854.088 125.714L873.416 107.474L935.883 169.605L914.874 190.695Z" fill="#EA6B3E"/>
<path d="M1437.2 712.599C1423.6 712.599 1411.2 710.199 1400 705.399C1388.8 700.599 1380 693.666 1373.6 684.599C1367.2 675.532 1364 664.466 1364 651.399C1364 638.066 1367.2 627.132 1373.6 618.599C1380 609.799 1388.8 603.266 1400 598.999C1411.2 594.466 1423.73 592.199 1437.6 592.199H1503.6V577.799C1503.6 563.932 1499.47 552.999 1491.2 544.999C1483.2 536.999 1471.2 532.999 1455.2 532.999C1439.47 532.999 1427.2 536.866 1418.4 544.599C1409.6 552.066 1403.6 562.199 1400.4 574.999L1370.8 565.399C1374 554.466 1379.07 544.599 1386 535.799C1392.93 526.732 1402.13 519.532 1413.6 514.199C1425.33 508.599 1439.33 505.799 1455.6 505.799C1480.67 505.799 1500.13 512.332 1514 525.399C1527.87 538.199 1534.8 556.332 1534.8 579.799V668.199C1534.8 676.199 1538.53 680.199 1546 680.199H1564V706.999H1536.4C1527.6 706.999 1520.53 704.599 1515.2 699.799C1509.87 694.732 1507.2 688.066 1507.2 679.799V677.799H1502.4C1499.47 682.866 1495.47 688.199 1490.4 693.799C1485.6 699.132 1478.93 703.532 1470.4 706.999C1461.87 710.732 1450.8 712.599 1437.2 712.599ZM1440.8 685.399C1459.47 685.399 1474.53 679.932 1486 668.999C1497.73 657.799 1503.6 642.199 1503.6 622.199V617.799H1438.8C1426.27 617.799 1415.87 620.599 1407.6 626.199C1399.6 631.532 1395.6 639.666 1395.6 650.599C1395.6 661.532 1399.73 670.066 1408 676.199C1416.53 682.332 1427.47 685.399 1440.8 685.399Z" fill="#0E1319"/>
<path d="M1625.8 786.999V758.999H1737.8C1745.53 758.999 1749.4 754.999 1749.4 746.999V675.799H1743.8C1741.13 681.399 1737 686.999 1731.4 692.599C1726.07 697.932 1719 702.332 1710.2 705.799C1701.4 708.999 1690.33 710.599 1677 710.599C1662.87 710.599 1649.8 707.532 1637.8 701.399C1626.07 695.266 1616.73 686.199 1609.8 674.199C1603.13 662.199 1599.8 647.532 1599.8 630.199V511.399H1631.4V627.799C1631.4 646.999 1636.2 660.999 1645.8 669.799C1655.67 678.599 1668.87 682.999 1685.4 682.999C1704.07 682.999 1719.4 676.866 1731.4 664.599C1743.4 652.332 1749.4 634.066 1749.4 609.799V511.399H1781V752.599C1781 763.266 1777.93 771.666 1771.8 777.799C1765.93 783.932 1757.27 786.999 1745.8 786.999H1625.8Z" fill="#0E1319"/>
<path d="M1847.12 706.999V511.399H1877.92V535.399H1883.52C1886.99 526.866 1892.32 520.599 1899.52 516.599C1906.72 512.599 1916.19 510.599 1927.92 510.599H1951.12V539.399H1925.92C1911.79 539.399 1900.32 543.399 1891.52 551.399C1882.99 559.132 1878.72 571.266 1878.72 587.799V706.999H1847.12Z" fill="#0E1319"/>
<path d="M2081.27 712.599C2061.54 712.599 2044.07 708.466 2028.87 700.199C2013.94 691.932 2002.21 680.332 1993.67 665.399C1985.41 650.199 1981.27 632.332 1981.27 611.799V606.599C1981.27 586.332 1985.41 568.599 1993.67 553.399C2002.21 538.199 2013.94 526.466 2028.87 518.199C2044.07 509.932 2061.54 505.799 2081.27 505.799C2101.01 505.799 2118.34 509.932 2133.27 518.199C2148.47 526.466 2160.21 538.199 2168.47 553.399C2177.01 568.599 2181.27 586.332 2181.27 606.599V611.799C2181.27 632.332 2177.01 650.199 2168.47 665.399C2160.21 680.332 2148.47 691.932 2133.27 700.199C2118.34 708.466 2101.01 712.599 2081.27 712.599ZM2081.27 684.199C2102.07 684.199 2118.61 677.666 2130.87 664.599C2143.41 651.266 2149.67 633.399 2149.67 610.999V607.399C2149.67 584.999 2143.41 567.266 2130.87 554.199C2118.61 540.866 2102.07 534.199 2081.27 534.199C2060.74 534.199 2044.21 540.866 2031.67 554.199C2019.14 567.266 2012.87 584.999 2012.87 607.399V610.999C2012.87 633.399 2019.14 651.266 2031.67 664.599C2044.21 677.666 2060.74 684.199 2081.27 684.199Z" fill="#0E1319"/>
<path d="M2238.14 706.999V511.399H2268.94V544.599H2274.54C2278.8 535.266 2286 526.866 2296.14 519.399C2306.54 511.666 2321.74 507.799 2341.74 507.799C2356.4 507.799 2369.47 510.866 2380.94 516.999C2392.67 523.132 2402 532.199 2408.94 544.199C2415.87 556.199 2419.34 570.999 2419.34 588.599V706.999H2387.74V590.999C2387.74 571.532 2382.8 557.399 2372.94 548.599C2363.34 539.799 2350.27 535.399 2333.74 535.399C2314.8 535.399 2299.34 541.532 2287.34 553.799C2275.6 566.066 2269.74 584.332 2269.74 608.599V706.999H2238.14Z" fill="#0E1319"/>
<path d="M2624.58 706.999V538.999H2564.58V511.399H2624.58V461.399C2624.58 450.732 2627.52 442.332 2633.38 436.199C2639.52 430.066 2648.18 426.999 2659.38 426.999H2708.58V454.199H2668.18C2660.18 454.199 2656.18 458.199 2656.18 466.199V511.399H2717.78V538.999H2656.18V706.999H2624.58Z" fill="#0E1319"/>
<path d="M2843.77 712.599C2824.04 712.599 2806.57 708.466 2791.37 700.199C2776.44 691.932 2764.71 680.332 2756.17 665.399C2747.91 650.199 2743.77 632.332 2743.77 611.799V606.599C2743.77 586.332 2747.91 568.599 2756.17 553.399C2764.71 538.199 2776.44 526.466 2791.37 518.199C2806.57 509.932 2824.04 505.799 2843.77 505.799C2863.51 505.799 2880.84 509.932 2895.77 518.199C2910.97 526.466 2922.71 538.199 2930.97 553.399C2939.51 568.599 2943.77 586.332 2943.77 606.599V611.799C2943.77 632.332 2939.51 650.199 2930.97 665.399C2922.71 680.332 2910.97 691.932 2895.77 700.199C2880.84 708.466 2863.51 712.599 2843.77 712.599ZM2843.77 684.199C2864.57 684.199 2881.11 677.666 2893.37 664.599C2905.91 651.266 2912.17 633.399 2912.17 610.999V607.399C2912.17 584.999 2905.91 567.266 2893.37 554.199C2881.11 540.866 2864.57 534.199 2843.77 534.199C2823.24 534.199 2806.71 540.866 2794.17 554.199C2781.64 567.266 2775.37 584.999 2775.37 607.399V610.999C2775.37 633.399 2781.64 651.266 2794.17 664.599C2806.71 677.666 2823.24 684.199 2843.77 684.199Z" fill="#0E1319"/>
<path d="M3000.64 706.999V511.399H3031.44V535.399H3037.04C3040.5 526.866 3045.84 520.599 3053.04 516.599C3060.24 512.599 3069.7 510.599 3081.44 510.599H3104.64V539.399H3079.44C3065.3 539.399 3053.84 543.399 3045.04 551.399C3036.5 559.132 3032.24 571.266 3032.24 587.799V706.999H3000.64Z" fill="#0E1319"/>
<path d="M3134.79 610.199V604.599C3134.79 584.066 3138.92 566.466 3147.19 551.799C3155.45 537.132 3166.65 525.799 3180.79 517.799C3194.92 509.799 3210.39 505.799 3227.19 505.799C3247.72 505.799 3263.45 509.799 3274.39 517.799C3285.59 525.532 3293.85 534.199 3299.19 543.799H3304.79V511.399H3334.79V752.599C3334.79 763.266 3331.85 771.666 3325.99 777.799C3320.12 783.932 3311.59 786.999 3300.39 786.999H3167.59V758.999H3291.99C3299.99 758.999 3303.99 754.999 3303.99 746.999V672.599H3298.39C3295.19 678.466 3290.65 684.199 3284.79 689.799C3278.92 695.399 3271.32 700.066 3261.99 703.799C3252.65 707.266 3241.05 708.999 3227.19 708.999C3210.39 708.999 3194.92 704.999 3180.79 696.999C3166.65 688.999 3155.45 677.666 3147.19 662.999C3138.92 648.066 3134.79 630.466 3134.79 610.199ZM3235.59 680.999C3255.85 680.999 3272.25 674.599 3284.79 661.799C3297.59 648.999 3303.99 631.399 3303.99 608.999V605.799C3303.99 583.132 3297.59 565.532 3284.79 552.999C3272.25 540.199 3255.85 533.799 3235.59 533.799C3215.59 533.799 3199.05 540.199 3185.99 552.999C3173.19 565.532 3166.79 583.132 3166.79 605.799V608.999C3166.79 631.399 3173.19 648.999 3185.99 661.799C3199.05 674.599 3215.59 680.999 3235.59 680.999Z" fill="#0E1319"/>
<path d="M3490.63 712.599C3470.89 712.599 3453.56 708.466 3438.63 700.199C3423.69 691.666 3412.09 679.799 3403.83 664.599C3395.56 649.399 3391.43 631.799 3391.43 611.799V606.999C3391.43 586.732 3395.56 568.999 3403.83 553.799C3412.09 538.599 3423.56 526.866 3438.23 518.599C3452.89 510.066 3469.69 505.799 3488.63 505.799C3507.03 505.799 3523.29 509.799 3537.43 517.799C3551.56 525.532 3562.63 536.732 3570.63 551.399C3578.63 566.066 3582.63 583.266 3582.63 602.999V617.399H3423.03C3423.83 638.466 3430.63 654.999 3443.43 666.999C3456.23 678.732 3472.23 684.599 3491.43 684.599C3508.23 684.599 3521.16 680.732 3530.23 672.999C3539.29 665.266 3546.23 656.066 3551.03 645.399L3578.23 658.599C3574.23 666.866 3568.63 675.132 3561.43 683.399C3554.49 691.666 3545.29 698.599 3533.83 704.199C3522.63 709.799 3508.23 712.599 3490.63 712.599ZM3423.43 591.399H3550.63C3549.56 573.266 3543.29 559.132 3531.83 548.999C3520.63 538.866 3506.23 533.799 3488.63 533.799C3470.76 533.799 3456.09 538.866 3444.63 548.999C3433.16 559.132 3426.09 573.266 3423.43 591.399Z" fill="#0E1319"/>
</svg>
